<?xml version="1.0" standalone="no"?>
<!DOCTYPE svg PUBLIC "-//W3C//DTD SVG 20010904//EN"
 "http://www.w3.org/TR/2001/REC-SVG-20010904/DTD/svg10.dtd">
<svg version="1.0" xmlns="http://www.w3.org/2000/svg"
 width="194.000000pt" height="199.000000pt" viewBox="0 0 194.000000 199.000000"
 preserveAspectRatio="xMidYMid meet">

<g transform="translate(0.000000,199.000000) scale(0.100000,-0.100000)"
fill="#000000" stroke="none">
<path d="M870 1801 c-275 -39 -512 -207 -624 -445 -57 -121 -79 -230 -74 -370
8 -218 80 -376 255 -556 52 -55 94 -90 106 -90 12 0 46 27 84 66 l63 67 47
-20 48 -19 3 -102 c3 -96 4 -102 25 -107 12 -3 92 -4 177 -3 l155 3 5 103 5
103 48 21 48 21 67 -66 c37 -37 74 -67 82 -67 9 0 69 53 134 119 135 135 132
120 37 215 l-59 59 18 46 18 46 103 5 104 5 3 170 c3 203 8 195 -120 195 -94
0 -93 -1 -118 64 -9 24 -4 32 60 96 39 39 70 74 70 78 0 10 -176 182 -227 221
-130 99 -380 164 -543 142z m227 -66 c123 -23 261 -87 337 -156 30 -27 30 -29
13 -46 -12 -12 -21 -15 -31 -8 -119 85 -158 106 -249 136 -88 30 -270 37 -357
15 -226 -58 -394 -203 -480 -415 -40 -97 -54 -186 -47 -295 8 -136 58 -267
142 -377 l35 -46 -21 -19 c-20 -18 -21 -17 -45 11 -77 94 -134 218 -158 344
-21 108 -20 177 3 282 30 134 88 246 181 353 31 35 132 115 180 142 144 82
328 111 497 79z m39 -116 c88 -27 158 -62 212 -107 l44 -35 -106 -106 c-58
-59 -106 -110 -106 -114 0 -4 16 -29 35 -56 20 -27 42 -76 52 -114 15 -57 16
-74 4 -129 -16 -79 -48 -135 -107 -186 -108 -96 -284 -101 -396 -12 -20 17
-43 30 -50 30 -7 0 -58 -45 -113 -100 -55 -55 -105 -100 -111 -100 -31 0 -122
170 -150 280 -23 93 -15 250 19 347 68 192 214 334 412 399 97 32 263 33 361
3z m401 -141 c18 -18 33 -36 33 -41 0 -6 -27 -37 -60 -69 -33 -33 -60 -66 -60
-74 0 -22 51 -138 64 -146 6 -4 50 -8 99 -8 l87 0 0 -130 0 -130 -95 0 -95 0
-30 -66 c-16 -37 -30 -74 -30 -83 0 -8 29 -45 65 -81 l65 -65 -95 -95 -94 -94
-71 68 c-38 37 -76 66 -83 63 -6 -3 -39 -17 -72 -31 l-60 -25 -5 -98 -5 -98
-132 -3 -132 -3 -3 97 c-2 74 -7 99 -18 105 -19 10 -129 59 -134 59 -2 0 -33
-29 -69 -65 -36 -36 -70 -65 -75 -65 -4 0 -23 16 -42 35 l-34 35 131 131 131
131 38 -26 c49 -33 153 -66 208 -66 81 0 205 56 264 119 59 63 102 169 102
253 0 52 -27 143 -55 188 -14 22 -25 45 -25 52 0 12 238 258 249 258 3 0 20
-14 38 -32z"/>
<path d="M940 1566 c0 -45 17 -65 39 -43 24 24 10 87 -20 87 -16 0 -19 -7 -19
-44z"/>
<path d="M1242 1533 c-18 -7 -43 -59 -36 -77 10 -25 32 -19 49 14 24 46 18 74
-13 63z"/>
<path d="M650 1513 c0 -10 11 -31 24 -48 20 -24 27 -28 37 -18 19 19 -13 83
-41 83 -12 0 -20 -7 -20 -17z"/>
<path d="M947 1423 c-4 -3 -7 -72 -7 -152 l0 -146 -44 -42 -44 -43 -85 0 c-98
0 -117 -5 -117 -31 0 -17 9 -19 104 -19 95 0 105 -2 111 -20 19 -60 111 -79
164 -34 27 22 31 32 31 74 0 44 -4 52 -35 77 l-35 28 0 146 c0 99 -4 149 -12
157 -14 14 -22 15 -31 5z m33 -363 c34 -18 44 -48 25 -76 -17 -26 -62 -33 -83
-12 -20 20 -14 65 10 82 27 19 24 19 48 6z"/>
<path d="M440 1300 c0 -22 53 -55 76 -46 23 9 16 35 -16 51 -40 21 -60 19 -60
-5z"/>
<path d="M1108 1188 c-2 -6 11 -34 29 -61 64 -94 43 -216 -49 -288 -40 -32
-46 -34 -123 -34 -75 0 -83 2 -127 34 -45 32 -68 34 -68 6 0 -20 53 -61 104
-80 56 -21 144 -17 200 10 51 25 104 78 127 129 21 46 25 148 8 193 -27 74
-89 129 -101 91z"/>
<path d="M373 1033 c-7 -2 -13 -13 -13 -24 0 -16 7 -19 44 -19 50 0 68 16 41
37 -19 13 -49 16 -72 6z"/>
<path d="M468 754 c-30 -16 -39 -54 -13 -54 30 0 76 31 73 48 -4 22 -27 25
-60 6z"/>
<path d="M1607 1033 c-15 -15 -7 -43 13 -43 15 0 20 7 20 25 0 24 -18 34 -33
18z"/>
<path d="M1404 555 c-4 -8 -1 -22 6 -30 11 -14 15 -14 31 1 14 13 16 20 8 31
-15 17 -38 17 -45 -2z"/>
<path d="M940 357 c0 -30 6 -36 31 -30 28 8 21 47 -8 51 -18 3 -23 -1 -23 -21z"/>
</g>
</svg>
